<svg preserveAspectRatio="none" width="100%" height="100%" overflow="visible" style="display: block;" viewBox="0 0 31 31" fill="none" xmlns="http://www.w3.org/2000/svg">
<g id="Frame 2609337" filter="url(#filter0_d_65_5079)">
<rect x="4" width="23" height="23" rx="4" fill="var(--fill-0, #DBFFE0)" shape-rendering="crispEdges"/>
<path id="Vector" d="M15.5 15.1111C15.7046 15.1111 15.8763 15.0418 16.0149 14.9031C16.1536 14.7644 16.2227 14.593 16.2222 14.3889C16.2217 14.1847 16.1524 14.0133 16.0142 13.8747C15.876 13.736 15.7046 13.6667 15.5 13.6667C15.2954 13.6667 15.124 13.736 14.9858 13.8747C14.8476 14.0133 14.7783 14.1847 14.7778 14.3889C14.7773 14.593 14.8466 14.7647 14.9858 14.9038C15.1249 15.043 15.2963 15.1121 15.5 15.1111ZM14.7778 12.2222H16.2222V7.88889H14.7778V12.2222ZM12.7917 18L9 14.2083V8.79167L12.7917 5H18.2083L22 8.79167V14.2083L18.2083 18H12.7917Z" fill="var(--fill-0, #0E9211)"/>
</g>
<defs>
<filter id="filter0_d_65_5079" x="0" y="0" width="31" height="31" filterUnits="userSpaceOnUse" color-interpolation-filters="sRGB">
<feFlood flood-opacity="0" result="BackgroundImageFix"/>
<feColorMatrix in="SourceAlpha" type="matrix" values="0 0 0 0 0 0 0 0 0 0 0 0 0 0 0 0 0 0 127 0" result="hardAlpha"/>
<feOffset dy="4"/>
<feGaussianBlur stdDeviation="2"/>
<feComposite in2="hardAlpha" operator="out"/>
<feColorMatrix type="matrix" values="0 0 0 0 0 0 0 0 0 0 0 0 0 0 0 0 0 0 0.25 0"/>
<feBlend mode="normal" in2="BackgroundImageFix" result="effect1_dropShadow_65_5079"/>
<feBlend mode="normal" in="SourceGraphic" in2="effect1_dropShadow_65_5079" result="shape"/>
</filter>
</defs>
</svg>
