<svg preserveAspectRatio="none" width="100%" height="100%" overflow="visible" style="display: block;" viewBox="0 0 17 20" fill="none" xmlns="http://www.w3.org/2000/svg">
<path id="Vector" d="M7 6.018C6.9953 6.21378 6.91421 6.39995 6.77407 6.53673C6.63392 6.67351 6.44583 6.75006 6.25 6.75C5.5 6.75 5.5 5.999 5.5 5.999V5.99C5.49966 5.9452 5.50234 5.90044 5.508 5.856C5.55122 5.46946 5.69614 5.10129 5.928 4.789C6.382 4.176 7.198 3.727 8.513 3.75C9.463 3.767 10.306 4.165 10.834 4.82C11.371 5.487 11.552 6.39 11.196 7.279C10.834 8.184 10.015 8.544 9.544 8.75L9.494 8.773C9.214 8.896 9.081 8.96 9.001 9.024L9 9.025V9.749C9.00013 9.94791 8.92124 10.1387 8.78068 10.2795C8.64013 10.4202 8.44941 10.4994 8.2505 10.4995C8.05159 10.4996 7.86077 10.4207 7.72002 10.2802C7.57928 10.1396 7.50013 9.94891 7.5 9.75V9C7.5 8.477 7.752 8.103 8.063 7.853C8.313 7.653 8.628 7.515 8.849 7.417L8.887 7.4C9.429 7.161 9.687 7.013 9.804 6.721C9.87268 6.56401 9.89616 6.39095 9.87178 6.22134C9.84739 6.05172 9.77613 5.89229 9.666 5.761C9.444 5.486 9.037 5.259 8.487 5.25C7.552 5.234 7.242 5.535 7.134 5.682C7.06163 5.77861 7.01547 5.89229 7 6.012V6.018ZM8.25 13.5C8.51522 13.5 8.76957 13.3946 8.95711 13.2071C9.14464 13.0196 9.25 12.7652 9.25 12.5C9.25 12.2348 9.14464 11.9804 8.95711 11.7929C8.76957 11.6054 8.51522 11.5 8.25 11.5C7.98478 11.5 7.73043 11.6054 7.54289 11.7929C7.35536 11.9804 7.25 12.2348 7.25 12.5C7.25 12.7652 7.35536 13.0196 7.54289 13.2071C7.73043 13.3946 7.98478 13.5 8.25 13.5ZM0 2.5C0 1.83696 0.263392 1.20107 0.732233 0.732233C1.20107 0.263392 1.83696 0 2.5 0H14C14.3283 0 14.6534 0.0646644 14.9567 0.190301C15.26 0.315938 15.5356 0.500087 15.7678 0.732233C15.9999 0.96438 16.1841 1.23998 16.3097 1.54329C16.4353 1.84661 16.5 2.1717 16.5 2.5V16.75C16.5 16.9489 16.421 17.1397 16.2803 17.2803C16.1397 17.421 15.9489 17.5 15.75 17.5H1.5C1.5 17.7652 1.60536 18.0196 1.79289 18.2071C1.98043 18.3946 2.23478 18.5 2.5 18.5H15.75C15.9489 18.5 16.1397 18.579 16.2803 18.7197C16.421 18.8603 16.5 19.0511 16.5 19.25C16.5 19.4489 16.421 19.6397 16.2803 19.7803C16.1397 19.921 15.9489 20 15.75 20H2.5C1.83696 20 1.20107 19.7366 0.732233 19.2678C0.263392 18.7989 0 18.163 0 17.5V2.5ZM1.5 2.5V16H15V2.5C15 2.23478 14.8946 1.98043 14.7071 1.79289C14.5196 1.60536 14.2652 1.5 14 1.5H2.5C2.23478 1.5 1.98043 1.60536 1.79289 1.79289C1.60536 1.98043 1.5 2.23478 1.5 2.5Z" fill="var(--fill-0, #6A7282)"/>
</svg>
