<svg preserveAspectRatio="none" width="100%" height="100%" overflow="visible" style="display: block;" viewBox="0 0 16 16" fill="none" xmlns="http://www.w3.org/2000/svg">
<g id="Icon">
<path id="Vector" d="M6.44737 2.75733C6.48411 2.37089 6.6636 2.01203 6.95077 1.75085C7.23795 1.48968 7.61219 1.34495 8.00037 1.34495C8.38856 1.34495 8.76279 1.48968 9.04997 1.75085C9.33715 2.01203 9.51664 2.37089 9.55337 2.75733C9.57545 3.00697 9.65735 3.24761 9.79213 3.45889C9.92691 3.67017 10.1106 3.84587 10.3277 3.97112C10.5448 4.09636 10.7888 4.16747 11.0392 4.17841C11.2895 4.18936 11.5389 4.13982 11.766 4.034C12.1188 3.87385 12.5185 3.85068 12.8874 3.96899C13.2563 4.0873 13.5679 4.33863 13.7617 4.67407C13.9555 5.00951 14.0176 5.40505 13.9358 5.78371C13.854 6.16238 13.6343 6.49708 13.3194 6.72267C13.1143 6.86656 12.9469 7.05774 12.8313 7.28002C12.7157 7.50229 12.6554 7.74914 12.6554 7.99967C12.6554 8.25019 12.7157 8.49704 12.8313 8.71932C12.9469 8.94159 13.1143 9.13277 13.3194 9.27667C13.6343 9.50225 13.854 9.83695 13.9358 10.2156C14.0176 10.5943 13.9555 10.9898 13.7617 11.3253C13.5679 11.6607 13.2563 11.912 12.8874 12.0303C12.5185 12.1487 12.1188 12.1255 11.766 11.9653C11.5389 11.8595 11.2895 11.81 11.0392 11.8209C10.7888 11.8319 10.5448 11.903 10.3277 12.0282C10.1106 12.1535 9.92691 12.3292 9.79213 12.5404C9.65735 12.7517 9.57545 12.9924 9.55337 13.242C9.51664 13.6284 9.33715 13.9873 9.04997 14.2485C8.76279 14.5097 8.38856 14.6544 8.00037 14.6544C7.61219 14.6544 7.23795 14.5097 6.95077 14.2485C6.6636 13.9873 6.48411 13.6284 6.44737 13.242C6.42534 12.9923 6.34344 12.7515 6.20862 12.5402C6.0738 12.3288 5.89002 12.1531 5.67286 12.0278C5.4557 11.9026 5.21155 11.8315 4.96109 11.8206C4.71063 11.8097 4.46124 11.8594 4.23404 11.9653C3.8813 12.1255 3.48159 12.1487 3.11271 12.0303C2.74382 11.912 2.43216 11.6607 2.23836 11.3253C2.04457 10.9898 1.98252 10.5943 2.06428 10.2156C2.14604 9.83695 2.36577 9.50225 2.68071 9.27667C2.88579 9.13277 3.05319 8.94159 3.16877 8.71932C3.28434 8.49704 3.34468 8.25019 3.34468 7.99967C3.34468 7.74914 3.28434 7.50229 3.16877 7.28002C3.05319 7.05774 2.88579 6.86656 2.68071 6.72267C2.36622 6.49696 2.14687 6.1624 2.06531 5.78399C1.98374 5.40558 2.04578 5.01036 2.23936 4.67514C2.43295 4.33992 2.74425 4.08865 3.11277 3.97016C3.48129 3.85167 3.8807 3.87442 4.23337 4.034C4.46055 4.13982 4.70987 4.18936 4.96024 4.17841C5.21061 4.16747 5.45466 4.09636 5.67173 3.97112C5.8888 3.84587 6.0725 3.67017 6.20728 3.45889C6.34207 3.24761 6.42396 3.00697 6.44604 2.75733" stroke="var(--stroke-0, #0A0A0A)" stroke-width="1.33333" stroke-linecap="round" stroke-linejoin="round"/>
<path id="Vector_2" d="M8 10C9.10457 10 10 9.10457 10 8C10 6.89543 9.10457 6 8 6C6.89543 6 6 6.89543 6 8C6 9.10457 6.89543 10 8 10Z" stroke="var(--stroke-0, #0A0A0A)" stroke-width="1.33333" stroke-linecap="round" stroke-linejoin="round"/>
</g>
</svg>
