<svg preserveAspectRatio="none" width="100%" height="100%" overflow="visible" style="display: block;" viewBox="0 0 17 17" fill="none" xmlns="http://www.w3.org/2000/svg">
<g id="Group 1000002744">
<path id="Vector" d="M0 6.2334C0 4.70885 -4.81814e-08 3.94739 0.473693 3.47369C0.947386 3 1.70885 3 3.2334 3H12.9336C14.4581 3 15.2196 3 15.6933 3.47369C16.167 3.94739 16.167 4.70885 16.167 6.2334C16.167 6.61413 16.167 6.8049 16.049 6.92373C15.9301 7.04175 15.7386 7.04175 15.3586 7.04175H0.80835C0.427617 7.04175 0.236846 7.04175 0.118019 6.92373C-7.22721e-08 6.8049 0 6.61332 0 6.2334ZM0 13.5085C0 15.0331 -4.81814e-08 15.7946 0.473693 16.2682C0.947386 16.7419 1.70885 16.7419 3.2334 16.7419H12.9336C14.4581 16.7419 15.2196 16.7419 15.6933 16.2682C16.167 15.7946 16.167 15.0331 16.167 13.5085V9.4668C16.167 9.08606 16.167 8.89529 16.049 8.77647C15.9301 8.65845 15.7386 8.65845 15.3586 8.65845H0.80835C0.427617 8.65845 0.236846 8.65845 0.118019 8.77647C-7.22721e-08 8.89529 0 9.08687 0 9.4668V13.5085Z" fill="var(--fill-0, #DA318C)"/>
<path id="Vector_2" d="M4 1V3.42505M12.0835 1V3.42505" stroke="var(--stroke-0, #DA318C)" stroke-width="2" stroke-linecap="round"/>
</g>
</svg>
