<svg preserveAspectRatio="none" width="100%" height="100%" overflow="visible" style="display: block;" viewBox="0 0 24 24" fill="none" xmlns="http://www.w3.org/2000/svg">
<g id="mingcute:round-line">
<g id="Group">
<path id="Vector" fill-rule="evenodd" clip-rule="evenodd" d="M12.593 23.258L12.582 23.26L12.511 23.295L12.491 23.299L12.477 23.295L12.406 23.26C12.3953 23.2567 12.3873 23.2583 12.382 23.265L12.378 23.275L12.361 23.703L12.366 23.723L12.376 23.736L12.48 23.81L12.495 23.814L12.507 23.81L12.611 23.736L12.623 23.72L12.627 23.703L12.61 23.276C12.6073 23.2653 12.6017 23.2593 12.593 23.258ZM12.858 23.145L12.845 23.147L12.66 23.24L12.65 23.25L12.647 23.261L12.665 23.691L12.67 23.703L12.678 23.71L12.879 23.803C12.8917 23.8063 12.9013 23.8037 12.908 23.795L12.912 23.781L12.878 23.167C12.8747 23.155 12.868 23.1477 12.858 23.145ZM12.143 23.147C12.1386 23.1443 12.1333 23.1435 12.1283 23.1446C12.1233 23.1457 12.1189 23.1487 12.116 23.153L12.11 23.167L12.076 23.781C12.0767 23.793 12.0823 23.801 12.093 23.805L12.108 23.803L12.309 23.71L12.319 23.702L12.323 23.691L12.34 23.261L12.337 23.249L12.327 23.239L12.143 23.147Z" fill="var(--fill-0, #4DB1D4)"/>
<path id="Vector_2" fill-rule="evenodd" clip-rule="evenodd" d="M12 4C9.87827 4 7.84344 4.84285 6.34315 6.34315C4.84285 7.84344 4 9.87827 4 12C4 14.1217 4.84285 16.1566 6.34315 17.6569C7.84344 19.1571 9.87827 20 12 20C14.1217 20 16.1566 19.1571 17.6569 17.6569C19.1571 16.1566 20 14.1217 20 12C20 9.87827 19.1571 7.84344 17.6569 6.34315C16.1566 4.84285 14.1217 4 12 4ZM2 12C2 6.477 6.477 2 12 2C17.523 2 22 6.477 22 12C22 17.523 17.523 22 12 22C6.477 22 2 17.523 2 12Z" fill="var(--fill-0, white)"/>
</g>
<circle id="Ellipse 4" cx="12.007" cy="12.0938" r="6" fill="var(--fill-0, white)"/>
</g>
</svg>
