<svg preserveAspectRatio="none" width="100%" height="100%" overflow="visible" style="display: block;" viewBox="0 0 26 26" fill="none" xmlns="http://www.w3.org/2000/svg">
<path id="Vector" d="M12.6875 0C9.3352 0.0406754 6.13167 1.39045 3.76106 3.76106C1.39045 6.13167 0.0406754 9.3352 0 12.6875C0.0406754 16.0398 1.39045 19.2433 3.76106 21.6139C6.13167 23.9845 9.3352 25.3343 12.6875 25.375C16.0398 25.3343 19.2433 23.9845 21.6139 21.6139C23.9845 19.2433 25.3343 16.0398 25.375 12.6875C25.3343 9.3352 23.9845 6.13167 21.6139 3.76106C19.2433 1.39045 16.0398 0.0406754 12.6875 0ZM19.9375 13.5938H13.5938V19.9375H11.7812V13.5938H5.4375V11.7812H11.7812V5.4375H13.5938V11.7812H19.9375V13.5938Z" fill="var(--fill-0, #0E9211)"/>
</svg>
