<svg preserveAspectRatio="none" width="100%" height="100%" overflow="visible" style="display: block;" viewBox="0 0 31 31" fill="none" xmlns="http://www.w3.org/2000/svg">
<g id="Frame 2609338" filter="url(#filter0_d_65_5155)">
<rect x="4" width="23" height="23" rx="4" fill="var(--fill-0, #F1F4FF)" shape-rendering="crispEdges"/>
<path id="Vector" d="M9 15.0588V14.5412C9 14.1745 9.09403 13.8376 9.28209 13.5305C9.47015 13.2233 9.73011 12.9887 10.062 12.8265C10.6925 12.5137 11.3481 12.2657 12.0286 12.0824C12.7092 11.899 13.4032 11.8074 14.1108 11.8074C14.2656 11.8074 14.3873 11.8749 14.4758 12.0099C14.5643 12.1449 14.5809 12.2877 14.5256 12.4382C14.4592 12.6647 14.4094 12.8912 14.3763 13.1176C14.3431 13.3441 14.3265 13.576 14.3265 13.8132C14.3265 14.126 14.3597 14.4279 14.426 14.7191C14.4924 15.0103 14.5864 15.2961 14.7081 15.5765C14.7966 15.7598 14.7884 15.9352 14.6836 16.1025C14.5787 16.2699 14.432 16.3534 14.2435 16.3529H10.3275C9.96242 16.3529 9.65002 16.2263 9.39028 15.9731C9.13053 15.7199 9.00044 15.4151 9 15.0588ZM18.956 15.0588C19.3211 15.0588 19.6337 14.9322 19.8939 14.679C20.1541 14.4258 20.2839 14.121 20.2835 13.7647C20.2831 13.4084 20.1532 13.1038 19.8939 12.8511C19.6346 12.5983 19.322 12.4714 18.956 12.4706C18.5901 12.4697 18.2777 12.5965 18.0188 12.8511C17.76 13.1056 17.6299 13.4101 17.6286 13.7647C17.6272 14.1193 17.7573 14.4241 18.0188 14.679C18.2804 14.9339 18.5927 15.0605 18.956 15.0588ZM14.3099 11.1765C13.5798 11.1765 12.9548 10.923 12.4348 10.4162C11.9149 9.90931 11.6549 9.3 11.6549 8.58823C11.6549 7.87647 11.9149 7.26716 12.4348 6.76029C12.9548 6.25343 13.5798 6 14.3099 6C15.04 6 15.665 6.25343 16.1849 6.76029C16.7049 7.26716 16.9648 7.87647 16.9648 8.58823C16.9648 9.3 16.7049 9.90931 16.1849 10.4162C15.665 10.923 15.04 11.1765 14.3099 11.1765ZM18.1927 16.4824L18.0932 16.0294C17.9604 15.9755 17.8361 15.919 17.7202 15.8599C17.6042 15.8008 17.4852 15.7279 17.3631 15.6412L16.8819 15.7868C16.7381 15.8299 16.5971 15.8245 16.4591 15.7706C16.321 15.7167 16.213 15.6304 16.1352 15.5118L16.0024 15.2853C15.925 15.1559 15.8973 15.0157 15.9194 14.8647C15.9416 14.7137 16.0135 14.5897 16.1352 14.4926L16.5002 14.1853C16.4781 14.0343 16.467 13.8941 16.467 13.7647C16.467 13.6353 16.4781 13.4951 16.5002 13.3441L16.1352 13.0368C16.0135 12.9397 15.9416 12.8183 15.9194 12.6725C15.8973 12.5267 15.925 12.3893 16.0024 12.2603L16.1518 12.0176C16.2292 11.899 16.3343 11.8127 16.467 11.7588C16.5998 11.7049 16.7381 11.6995 16.8819 11.7426L17.3631 11.8882C17.4848 11.802 17.6038 11.7291 17.7202 11.6695C17.8365 11.61 17.9609 11.5535 18.0932 11.5L18.1927 11.0309C18.2259 10.8799 18.3007 10.7587 18.4171 10.6672C18.5335 10.5758 18.6689 10.5298 18.8233 10.5294H19.0888C19.2437 10.5294 19.3793 10.5779 19.4957 10.675C19.612 10.7721 19.6866 10.8961 19.7193 11.0471L19.8189 11.5C19.9516 11.5539 20.076 11.6132 20.1919 11.6779C20.3078 11.7426 20.4269 11.8235 20.549 11.9206L20.997 11.775C21.1519 11.7211 21.3012 11.7211 21.445 11.775C21.5889 11.8289 21.6995 11.9206 21.7769 12.05L21.9097 12.2765C21.9871 12.4059 22.0147 12.5461 21.9926 12.6971C21.9705 12.848 21.8986 12.9721 21.7769 13.0691L21.4119 13.3765C21.434 13.5059 21.445 13.6407 21.445 13.7809C21.445 13.9211 21.434 14.0559 21.4119 14.1853L21.7769 14.4926C21.8986 14.5897 21.9705 14.7111 21.9926 14.8569C22.0147 15.0027 21.9871 15.1401 21.9097 15.2691L21.7603 15.5118C21.6829 15.6304 21.5778 15.7167 21.445 15.7706C21.3123 15.8245 21.174 15.8299 21.0302 15.7868L20.549 15.6412C20.4273 15.7274 20.3083 15.8001 20.1919 15.8592C20.0755 15.9183 19.9512 15.9751 19.8189 16.0294L19.7193 16.4985C19.6861 16.6495 19.6116 16.7709 19.4957 16.8628C19.3797 16.9547 19.2441 17.0004 19.0888 17H18.8233C18.6684 17 18.533 16.9515 18.4171 16.8544C18.3011 16.7574 18.2264 16.6333 18.1927 16.4824Z" fill="var(--fill-0, #4DB1D4)"/>
</g>
<defs>
<filter id="filter0_d_65_5155" x="0" y="0" width="31" height="31" filterUnits="userSpaceOnUse" color-interpolation-filters="sRGB">
<feFlood flood-opacity="0" result="BackgroundImageFix"/>
<feColorMatrix in="SourceAlpha" type="matrix" values="0 0 0 0 0 0 0 0 0 0 0 0 0 0 0 0 0 0 127 0" result="hardAlpha"/>
<feOffset dy="4"/>
<feGaussianBlur stdDeviation="2"/>
<feComposite in2="hardAlpha" operator="out"/>
<feColorMatrix type="matrix" values="0 0 0 0 0 0 0 0 0 0 0 0 0 0 0 0 0 0 0.25 0"/>
<feBlend mode="normal" in2="BackgroundImageFix" result="effect1_dropShadow_65_5155"/>
<feBlend mode="normal" in="SourceGraphic" in2="effect1_dropShadow_65_5155" result="shape"/>
</filter>
</defs>
</svg>
