<svg preserveAspectRatio="none" width="100%" height="100%" overflow="visible" style="display: block;" viewBox="0 0 21 21" fill="none" xmlns="http://www.w3.org/2000/svg">
<g id="ph:building-light">
<path id="Vector" d="M18.5091 18.0182H16.3818V1.98182H17.2C17.3302 1.98182 17.4551 1.9301 17.5471 1.83803C17.6392 1.74597 17.6909 1.62111 17.6909 1.49091C17.6909 1.36071 17.6392 1.23585 17.5471 1.14378C17.4551 1.05172 17.3302 1 17.2 1H2.8C2.6698 1 2.54494 1.05172 2.45287 1.14378C2.36081 1.23585 2.30909 1.36071 2.30909 1.49091C2.30909 1.62111 2.36081 1.74597 2.45287 1.83803C2.54494 1.9301 2.6698 1.98182 2.8 1.98182H3.61818V18.0182H1.49091C1.36071 18.0182 1.23585 18.0699 1.14378 18.162C1.05172 18.254 1 18.3789 1 18.5091C1 18.6393 1.05172 18.7642 1.14378 18.8562C1.23585 18.9483 1.36071 19 1.49091 19H18.5091C18.6393 19 18.7642 18.9483 18.8562 18.8562C18.9483 18.7642 19 18.6393 19 18.5091C19 18.3789 18.9483 18.254 18.8562 18.162C18.7642 18.0699 18.6393 18.0182 18.5091 18.0182ZM4.6 1.98182H15.4V18.0182H12.4545V14.5818C12.4545 14.4516 12.4028 14.3268 12.3108 14.2347C12.2187 14.1426 12.0938 14.0909 11.9636 14.0909H8.03636C7.90617 14.0909 7.7813 14.1426 7.68924 14.2347C7.59718 14.3268 7.54545 14.4516 7.54545 14.5818V18.0182H4.6V1.98182ZM11.4727 18.0182H8.52727V15.0727H11.4727V18.0182ZM6.89091 4.76364C6.89091 4.63344 6.94263 4.50857 7.03469 4.41651C7.12676 4.32445 7.25162 4.27273 7.38182 4.27273H8.69091C8.82111 4.27273 8.94597 4.32445 9.03803 4.41651C9.1301 4.50857 9.18182 4.63344 9.18182 4.76364C9.18182 4.89383 9.1301 5.0187 9.03803 5.11076C8.94597 5.20282 8.82111 5.25455 8.69091 5.25455H7.38182C7.25162 5.25455 7.12676 5.20282 7.03469 5.11076C6.94263 5.0187 6.89091 4.89383 6.89091 4.76364ZM10.8182 4.76364C10.8182 4.63344 10.8699 4.50857 10.962 4.41651C11.054 4.32445 11.1789 4.27273 11.3091 4.27273H12.6182C12.7484 4.27273 12.8732 4.32445 12.9653 4.41651C13.0574 4.50857 13.1091 4.63344 13.1091 4.76364C13.1091 4.89383 13.0574 5.0187 12.9653 5.11076C12.8732 5.20282 12.7484 5.25455 12.6182 5.25455H11.3091C11.1789 5.25455 11.054 5.20282 10.962 5.11076C10.8699 5.0187 10.8182 4.89383 10.8182 4.76364ZM6.89091 8.03636C6.89091 7.90617 6.94263 7.7813 7.03469 7.68924C7.12676 7.59718 7.25162 7.54545 7.38182 7.54545H8.69091C8.82111 7.54545 8.94597 7.59718 9.03803 7.68924C9.1301 7.7813 9.18182 7.90617 9.18182 8.03636C9.18182 8.16656 9.1301 8.29142 9.03803 8.38349C8.94597 8.47555 8.82111 8.52727 8.69091 8.52727H7.38182C7.25162 8.52727 7.12676 8.47555 7.03469 8.38349C6.94263 8.29142 6.89091 8.16656 6.89091 8.03636ZM10.8182 8.03636C10.8182 7.90617 10.8699 7.7813 10.962 7.68924C11.054 7.59718 11.1789 7.54545 11.3091 7.54545H12.6182C12.7484 7.54545 12.8732 7.59718 12.9653 7.68924C13.0574 7.7813 13.1091 7.90617 13.1091 8.03636C13.1091 8.16656 13.0574 8.29142 12.9653 8.38349C12.8732 8.47555 12.7484 8.52727 12.6182 8.52727H11.3091C11.1789 8.52727 11.054 8.47555 10.962 8.38349C10.8699 8.29142 10.8182 8.16656 10.8182 8.03636ZM7.38182 11.8C7.25162 11.8 7.12676 11.7483 7.03469 11.6562C6.94263 11.5642 6.89091 11.4393 6.89091 11.3091C6.89091 11.1789 6.94263 11.054 7.03469 10.962C7.12676 10.8699 7.25162 10.8182 7.38182 10.8182H8.69091C8.82111 10.8182 8.94597 10.8699 9.03803 10.962C9.1301 11.054 9.18182 11.1789 9.18182 11.3091C9.18182 11.4393 9.1301 11.5642 9.03803 11.6562C8.94597 11.7483 8.82111 11.8 8.69091 11.8H7.38182ZM10.8182 11.3091C10.8182 11.1789 10.8699 11.054 10.962 10.962C11.054 10.8699 11.1789 10.8182 11.3091 10.8182H12.6182C12.7484 10.8182 12.8732 10.8699 12.9653 10.962C13.0574 11.054 13.1091 11.1789 13.1091 11.3091C13.1091 11.4393 13.0574 11.5642 12.9653 11.6562C12.8732 11.7483 12.7484 11.8 12.6182 11.8H11.3091C11.1789 11.8 11.054 11.7483 10.962 11.6562C10.8699 11.5642 10.8182 11.4393 10.8182 11.3091Z" fill="var(--fill-0, #4DB1D4)"/>
</g>
</svg>
