<svg preserveAspectRatio="none" width="100%" height="100%" overflow="visible" style="display: block;" viewBox="0 0 316 174" fill="none" xmlns="http://www.w3.org/2000/svg">
<g id="Group 2607">
<g id="Group 2411">
<rect id="Rectangle 2" x="2.67558" y="0.5" width="312.822" height="173" stroke="var(--stroke-0, #F1F1F1)"/>
<path id="Vector 2" d="M2.17558 58H315.997" stroke="var(--stroke-0, #F1F1F1)"/>
<path id="Vector 4" d="M2.17558 116H315.997" stroke="var(--stroke-0, #F1F1F1)"/>
<path id="Vector 5" d="M54.4789 1.29242e-08L54.4789 172.188" stroke="var(--stroke-0, #F1F1F1)"/>
<path id="Vector 6" d="M106.78 1.29242e-08L106.78 172.188" stroke="var(--stroke-0, #F1F1F1)"/>
<path id="Vector 23" d="M159.088 1.29242e-08L159.088 172.188" stroke="var(--stroke-0, #F1F1F1)"/>
<path id="Vector 24" d="M211.394 1.29242e-08L211.394 172.188" stroke="var(--stroke-0, #F1F1F1)"/>
<path id="Vector 25" d="M263.695 1.29242e-08L263.695 172.188" stroke="var(--stroke-0, #F1F1F1)"/>
</g>
<ellipse id="Ellipse 64" cx="211.394" cy="74.4293" rx="2.17893" ry="3.63021" fill="var(--fill-0, #4DB1D4)"/>
<path id="Vector 26" d="M2.17767 110.731C27.5708 101.607 97.748 82.1664 175.312 77.3939C252.877 72.6214 299.969 62.5383 313.82 58.0933" stroke="var(--stroke-0, #4DB1D4)"/>
<ellipse id="Ellipse 61" cx="3.26755" cy="112.547" rx="2.17893" ry="3.63021" fill="var(--fill-0, #4DB1D4)"/>
<ellipse id="Ellipse 62" cx="54.4799" cy="96.211" rx="2.17893" ry="3.63021" fill="var(--fill-0, #4DB1D4)"/>
<ellipse id="Ellipse 63" cx="158" cy="79.8752" rx="2.17893" ry="3.63021" fill="var(--fill-0, #4DB1D4)"/>
<ellipse id="Ellipse 65" cx="313.821" cy="59.9093" rx="2.17893" ry="3.63021" fill="var(--fill-0, #4DB1D4)"/>
<g id="Vector 28">
</g>
<g id="Ellipse 71">
</g>
<g id="Ellipse 72">
</g>
<g id="Ellipse 73">
</g>
<g id="Ellipse 74">
</g>
<g id="Ellipse 75">
</g>
<ellipse id="Ellipse 456" cx="106.783" cy="85.321" rx="2.17893" ry="3.63021" fill="var(--fill-0, #4DB1D4)"/>
<g id="Ellipse 458">
</g>
<ellipse id="Ellipse 461" cx="263.696" cy="67.1693" rx="2.17893" ry="3.63021" fill="var(--fill-0, #4DB1D4)"/>
<g id="Ellipse 463">
</g>
</g>
</svg>
