<svg preserveAspectRatio="none" width="100%" height="100%" overflow="visible" style="display: block;" viewBox="0 0 22 19" fill="none" xmlns="http://www.w3.org/2000/svg">
<path id="Vector" d="M6.882 0H15.118L16.618 3H22V19H0V3H5.382L6.882 0ZM5.75 10.75C5.75 12.1424 6.30312 13.4777 7.28769 14.4623C8.27226 15.4469 9.60761 16 11 16C12.3924 16 13.7277 15.4469 14.7123 14.4623C15.6969 13.4777 16.25 12.1424 16.25 10.75C16.25 9.35761 15.6969 8.02226 14.7123 7.03769C13.7277 6.05312 12.3924 5.5 11 5.5C9.60761 5.5 8.27226 6.05312 7.28769 7.03769C6.30312 8.02226 5.75 9.35761 5.75 10.75Z" fill="var(--fill-0, #4DB1D4)"/>
</svg>
