<svg preserveAspectRatio="none" width="100%" height="100%" overflow="visible" style="display: block;" viewBox="0 0 31 31" fill="none" xmlns="http://www.w3.org/2000/svg">
<g id="Frame 2609352" filter="url(#filter0_d_65_5158)">
<rect x="4" width="23" height="23" rx="4" fill="var(--fill-0, #FFF4D4)" shape-rendering="crispEdges"/>
<path id="Vector" d="M18.5789 18C17.6325 18 16.8258 17.683 16.1589 17.049C15.492 16.4151 15.1583 15.6487 15.1579 14.75C15.1574 13.8513 15.4911 13.0849 16.1589 12.4509C16.8267 11.817 17.6334 11.5 18.5789 11.5C19.5245 11.5 20.3314 11.817 20.9997 12.4509C21.6679 13.0849 22.0014 13.8513 22 14.75C21.9986 15.6487 21.665 16.4153 20.999 17.0497C20.333 17.6841 19.5263 18.0009 18.5789 18ZM18.5789 16.7C18.7044 16.7 18.81 16.6595 18.8957 16.5784C18.9815 16.4974 19.0241 16.3971 19.0237 16.2775C19.0232 16.1579 18.9806 16.0578 18.8957 15.9772C18.8109 15.8966 18.7053 15.8559 18.5789 15.855C18.4526 15.8541 18.3472 15.8949 18.2628 15.9772C18.1785 16.0595 18.1356 16.1596 18.1342 16.2775C18.1328 16.3954 18.1757 16.4957 18.2628 16.5784C18.35 16.6612 18.4553 16.7017 18.5789 16.7ZM18.271 15.465H18.8868V15.3025C18.8868 15.1833 18.921 15.0776 18.9895 14.9853C19.0579 14.893 19.1377 14.8037 19.2289 14.7175C19.3886 14.5875 19.514 14.4629 19.6053 14.3437C19.6965 14.2246 19.7421 14.0567 19.7421 13.84C19.7421 13.5258 19.6338 13.2741 19.4171 13.0847C19.2004 12.8953 18.921 12.8004 18.5789 12.8C18.3167 12.8 18.0802 12.8732 17.8694 13.0197C17.6587 13.1662 17.5075 13.3638 17.4158 13.6125L17.9632 13.84C17.9974 13.71 18.0688 13.5962 18.1773 13.4987C18.2859 13.4012 18.4198 13.3525 18.5789 13.3525C18.75 13.3525 18.8841 13.3932 18.9813 13.4747C19.0784 13.5562 19.1268 13.6779 19.1263 13.84C19.1263 13.9592 19.0921 14.0595 19.0237 14.1409C18.9553 14.2224 18.8754 14.3063 18.7842 14.3925C18.7158 14.4575 18.6446 14.5225 18.5707 14.5875C18.4968 14.6525 18.4312 14.7283 18.3737 14.815C18.3395 14.88 18.3139 14.945 18.297 15.01C18.2802 15.075 18.2715 15.1508 18.271 15.2375V15.465ZM15.1579 9.55H18.5789L15.1579 6.3V9.55ZM10.3684 18C9.9921 18 9.67007 17.8728 9.40232 17.6184C9.13456 17.3641 9.00046 17.0579 9 16.7V6.3C9 5.9425 9.13411 5.63657 9.40232 5.3822C9.67053 5.12783 9.99256 5.00043 10.3684 5H15.8421L19.9474 8.9V10.395C19.7193 10.33 19.4912 10.2812 19.2632 10.2487C19.0351 10.2162 18.807 10.2 18.5789 10.2C17.9289 10.2 17.3161 10.3166 16.7405 10.5497C16.1648 10.7828 15.6601 11.0996 15.2263 11.5H11.7368V12.8H14.2513C14.1487 13.0058 14.0632 13.2171 13.9947 13.4337C13.9263 13.6504 13.875 13.8725 13.8408 14.1H11.7368V15.4H13.8408C13.9206 15.8875 14.0803 16.3561 14.3197 16.8059C14.5592 17.2557 14.8671 17.6538 15.2434 18H10.3684Z" fill="var(--fill-0, #C08F2C)"/>
</g>
<defs>
<filter id="filter0_d_65_5158" x="0" y="0" width="31" height="31" filterUnits="userSpaceOnUse" color-interpolation-filters="sRGB">
<feFlood flood-opacity="0" result="BackgroundImageFix"/>
<feColorMatrix in="SourceAlpha" type="matrix" values="0 0 0 0 0 0 0 0 0 0 0 0 0 0 0 0 0 0 127 0" result="hardAlpha"/>
<feOffset dy="4"/>
<feGaussianBlur stdDeviation="2"/>
<feComposite in2="hardAlpha" operator="out"/>
<feColorMatrix type="matrix" values="0 0 0 0 0 0 0 0 0 0 0 0 0 0 0 0 0 0 0.25 0"/>
<feBlend mode="normal" in2="BackgroundImageFix" result="effect1_dropShadow_65_5158"/>
<feBlend mode="normal" in="SourceGraphic" in2="effect1_dropShadow_65_5158" result="shape"/>
</filter>
</defs>
</svg>
