<svg preserveAspectRatio="none" width="100%" height="100%" overflow="visible" style="display: block;" viewBox="0 0 44 45" fill="none" xmlns="http://www.w3.org/2000/svg">
<g id="actions">
<rect id="Rectangle 11" x="0.5" y="0.5" width="42.9804" height="43.625" rx="3.5" fill="var(--fill-0, white)" stroke="var(--stroke-0, #E1E2E3)"/>
<path id="Vector" d="M15 11C13.9 11 13 11.9 13 13V29C13 30.1 13.9 31 15 31H19V29.1L29 19.1V17L23 11H15ZM22 12.5L27.5 18H22V12.5ZM29.1 22C29 22 28.8 22.1 28.7 22.2L27.7 23.2L29.8 25.3L30.8 24.3C31 24.1 31 23.7 30.8 23.5L29.5 22.2C29.4 22.1 29.3 22 29.1 22ZM27.1 23.8L21 29.9V32H23.1L29.2 25.9L27.1 23.8Z" fill="var(--fill-0, #0E9211)"/>
</g>
</svg>
