<svg preserveAspectRatio="none" width="100%" height="100%" overflow="visible" style="display: block;" viewBox="0 0 27 29" fill="none" xmlns="http://www.w3.org/2000/svg">
<path id="Vector" d="M10.8333 15.8H8.16667M18.8333 15.8H16.1667M10.8333 10.6H8.16667M10.8333 21H8.16667M18.8333 10.6H16.1667M18.8333 21H16.1667M25.5 16.9479V10.7664C25.5 9.2909 25.4987 8.5525 25.1307 7.9337C24.7627 7.3149 24.1053 6.9535 22.792 6.2307L16.092 2.5452C14.8253 1.8484 14.192 1.5 13.5 1.5C12.808 1.5 12.1747 1.8484 10.908 2.5452L4.208 6.232C2.89467 6.9535 2.23734 7.3149 1.86934 7.935C1.50134 8.5525 1.50134 9.2909 1.5 10.7664V16.9479C1.5 21.9217 1.5 24.4099 3.06267 25.9543C4.624 27.5 7.13867 27.5 12.1667 27.5H14.8333C19.8613 27.5 22.376 27.5 23.9373 25.9543C25.5 24.4099 25.5 21.923 25.5 16.9479Z" stroke="var(--stroke-0, #4DB1D4)" stroke-width="3" stroke-linecap="round"/>
</svg>
