<svg preserveAspectRatio="none" width="100%" height="100%" overflow="visible" style="display: block;" viewBox="0 0 20 20" fill="none" xmlns="http://www.w3.org/2000/svg">
<g id="basil:document-solid">
<path id="Vector" fill-rule="evenodd" clip-rule="evenodd" d="M11.875 2.08333C11.875 2.02808 11.8531 1.97509 11.814 1.93602C11.7749 1.89695 11.7219 1.875 11.6667 1.875H5.83333C5.22555 1.875 4.64265 2.11644 4.21288 2.54621C3.78311 2.97598 3.54167 3.55888 3.54167 4.16667V15.8333C3.54167 16.4411 3.78311 17.024 4.21288 17.4538C4.64265 17.8836 5.22555 18.125 5.83333 18.125H14.1667C14.7745 18.125 15.3573 17.8836 15.7871 17.4538C16.2169 17.024 16.4583 16.4411 16.4583 15.8333V7.6225C16.4583 7.56725 16.4364 7.51426 16.3973 7.47519C16.3582 7.43612 16.3053 7.41417 16.25 7.41417H12.5C12.3342 7.41417 12.1753 7.34832 12.0581 7.23111C11.9408 7.1139 11.875 6.95493 11.875 6.78917V2.08333ZM12.5 10.2083C12.6658 10.2083 12.8247 10.2742 12.9419 10.3914C13.0592 10.5086 13.125 10.6676 13.125 10.8333C13.125 10.9991 13.0592 11.1581 12.9419 11.2753C12.8247 11.3925 12.6658 11.4583 12.5 11.4583H7.5C7.33424 11.4583 7.17527 11.3925 7.05806 11.2753C6.94085 11.1581 6.875 10.9991 6.875 10.8333C6.875 10.6676 6.94085 10.5086 7.05806 10.3914C7.17527 10.2742 7.33424 10.2083 7.5 10.2083H12.5ZM12.5 13.5417C12.6658 13.5417 12.8247 13.6075 12.9419 13.7247C13.0592 13.8419 13.125 14.0009 13.125 14.1667C13.125 14.3324 13.0592 14.4914 12.9419 14.6086C12.8247 14.7258 12.6658 14.7917 12.5 14.7917H7.5C7.33424 14.7917 7.17527 14.7258 7.05806 14.6086C6.94085 14.4914 6.875 14.3324 6.875 14.1667C6.875 14.0009 6.94085 13.8419 7.05806 13.7247C7.17527 13.6075 7.33424 13.5417 7.5 13.5417H12.5Z" fill="var(--fill-0, #243644)"/>
<path id="Vector_2" d="M13.125 2.35333C13.125 2.2 13.2858 2.1025 13.405 2.19833C13.5061 2.28 13.5958 2.375 13.6742 2.48333L16.185 5.98083C16.2417 6.06083 16.18 6.16417 16.0817 6.16417H13.3333C13.2781 6.16417 13.2251 6.14222 13.186 6.10315C13.1469 6.06408 13.125 6.01109 13.125 5.95583V2.35333Z" fill="var(--fill-0, #243644)"/>
</g>
</svg>
