<svg preserveAspectRatio="none" width="100%" height="100%" overflow="visible" style="display: block;" viewBox="0 0 17 17" fill="none" xmlns="http://www.w3.org/2000/svg">
<g id="Group">
<path id="Vector" d="M0 5.85013C0 4.32559 -4.81814e-08 3.56412 0.473693 3.09043C0.947386 2.61674 1.70885 2.61674 3.2334 2.61674H12.9336C14.4581 2.61674 15.2196 2.61674 15.6933 3.09043C16.167 3.56412 16.167 4.32559 16.167 5.85013C16.167 6.23087 16.167 6.42164 16.049 6.54046C15.9301 6.65848 15.7386 6.65848 15.3586 6.65848H0.80835C0.427617 6.65848 0.236846 6.65848 0.118019 6.54046C-7.22721e-08 6.42164 0 6.23006 0 5.85013ZM0 13.1253C0 14.6498 -4.81814e-08 15.4113 0.473693 15.885C0.947386 16.3587 1.70885 16.3587 3.2334 16.3587H12.9336C14.4581 16.3587 15.2196 16.3587 15.6933 15.885C16.167 15.4113 16.167 14.6498 16.167 13.1253V9.08353C16.167 8.7028 16.167 8.51203 16.049 8.3932C15.9301 8.27518 15.7386 8.27518 15.3586 8.27518H0.80835C0.427617 8.27518 0.236846 8.27518 0.118019 8.3932C-7.22721e-08 8.51203 0 8.70361 0 9.08353V13.1253Z" fill="var(--fill-0, #DA318C)"/>
<path id="Vector_2" d="M4.04146 1V3.42505M12.125 1V3.42505" stroke="var(--stroke-0, #DA318C)" stroke-width="2" stroke-linecap="round"/>
</g>
</svg>
