<svg preserveAspectRatio="none" width="100%" height="100%" overflow="visible" style="display: block;" viewBox="0 0 16 16" fill="none" xmlns="http://www.w3.org/2000/svg">
<g id="Icon">
<path id="Vector" d="M10.6597 1.9987C10.3063 1.9987 9.96741 2.13908 9.71753 2.38897C9.46764 2.63885 9.32726 2.97777 9.32726 3.33116V7.32856C9.32726 7.68195 9.46764 8.02087 9.71753 8.27075C9.96741 8.52064 10.3063 8.66102 10.6597 8.66102C10.8364 8.66102 11.0059 8.73122 11.1308 8.85616C11.2558 8.9811 11.326 9.15056 11.326 9.32726V9.99349C11.326 10.3469 11.1856 10.6858 10.9357 10.9357C10.6858 11.1856 10.3469 11.326 9.99349 11.326C9.81679 11.326 9.64734 11.3961 9.52239 11.5211C9.39745 11.646 9.32726 11.8155 9.32726 11.9922V13.3247C9.32726 13.5013 9.39745 13.6708 9.52239 13.7958C9.64734 13.9207 9.81679 13.9909 9.99349 13.9909C11.0537 13.9909 12.0704 13.5697 12.8201 12.8201C13.5697 12.0704 13.9909 11.0537 13.9909 9.99349V3.33116C13.9909 2.97777 13.8505 2.63885 13.6006 2.38897C13.3507 2.13908 13.0118 1.9987 12.6584 1.9987H10.6597Z" stroke="var(--stroke-0, #0A0A0A)" stroke-width="1.33247" stroke-linecap="round" stroke-linejoin="round"/>
<path id="Vector_2" d="M3.33116 1.9987C2.97777 1.9987 2.63885 2.13908 2.38897 2.38897C2.13908 2.63885 1.9987 2.97777 1.9987 3.33116V7.32856C1.9987 7.68195 2.13908 8.02087 2.38897 8.27075C2.63885 8.52064 2.97777 8.66102 3.33116 8.66102C3.50786 8.66102 3.67732 8.73122 3.80226 8.85616C3.9272 8.9811 3.9974 9.15056 3.9974 9.32726V9.99349C3.9974 10.3469 3.85701 10.6858 3.60713 10.9357C3.35724 11.1856 3.01832 11.326 2.66493 11.326C2.48823 11.326 2.31878 11.3961 2.19383 11.5211C2.06889 11.646 1.9987 11.8155 1.9987 11.9922V13.3247C1.9987 13.5013 2.06889 13.6708 2.19383 13.7958C2.31878 13.9207 2.48823 13.9909 2.66493 13.9909C3.72511 13.9909 4.74186 13.5697 5.49152 12.8201C6.24117 12.0704 6.66233 11.0537 6.66233 9.99349V3.33116C6.66233 2.97777 6.52194 2.63885 6.27206 2.38897C6.02217 2.13908 5.68325 1.9987 5.32986 1.9987H3.33116Z" stroke="var(--stroke-0, #0A0A0A)" stroke-width="1.33247" stroke-linecap="round" stroke-linejoin="round"/>
</g>
</svg>
