<svg preserveAspectRatio="none" width="100%" height="100%" overflow="visible" style="display: block;" viewBox="0 0 16 16" fill="none" xmlns="http://www.w3.org/2000/svg">
<g id="Icon" clip-path="url(#clip0_75_5812)">
<path id="Vector" d="M6.66233 8.66102C6.94844 9.04352 7.31347 9.36002 7.73266 9.58904C8.15185 9.81807 8.61539 9.95426 9.09184 9.98838C9.5683 10.0225 10.0465 9.95376 10.4941 9.78681C10.9416 9.61986 11.348 9.35861 11.6857 9.02079L13.6844 7.02209C14.2912 6.39382 14.627 5.55237 14.6194 4.67895C14.6118 3.80552 14.2615 2.97003 13.6438 2.3524C13.0262 1.73478 12.1907 1.38444 11.3173 1.37685C10.4439 1.36926 9.60242 1.70503 8.97415 2.31182L7.82823 3.45108" stroke="var(--stroke-0, #0A0A0A)" stroke-width="1.33247" stroke-linecap="round" stroke-linejoin="round"/>
<path id="Vector_2" d="M9.32726 7.32857C9.04114 6.94606 8.67611 6.62957 8.25692 6.40055C7.83773 6.17152 7.37419 6.03533 6.89774 6.00121C6.42129 5.96709 5.94307 6.03583 5.49552 6.20278C5.04798 6.36973 4.64157 6.63097 4.30386 6.9688L2.30517 8.9675C1.69837 9.59576 1.36261 10.4372 1.37019 11.3106C1.37778 12.1841 1.72812 13.0196 2.34574 13.6372C2.96337 14.2548 3.79887 14.6051 4.67229 14.6127C5.54571 14.6203 6.38717 14.2846 7.01543 13.6778L8.15469 12.5385" stroke="var(--stroke-0, #0A0A0A)" stroke-width="1.33247" stroke-linecap="round" stroke-linejoin="round"/>
</g>
<defs>
<clipPath id="clip0_75_5812">
<rect width="15.9896" height="15.9896" fill="white"/>
</clipPath>
</defs>
</svg>
