<svg preserveAspectRatio="none" width="100%" height="100%" overflow="visible" style="display: block;" viewBox="0 0 54 54" fill="none" xmlns="http://www.w3.org/2000/svg">
<g id="Frame 2610518">
<g id="Icon">
<circle id="Ellipse 3" cx="27" cy="27" r="27" fill="var(--fill-0, #E9F5FE)"/>
</g>
<path id="Vector" d="M24.3333 28.3H21.6667M32.3333 28.3H29.6667M24.3333 23.1H21.6667M24.3333 33.5H21.6667M32.3333 23.1H29.6667M32.3333 33.5H29.6667M39 29.4479V23.2664C39 21.7909 38.9987 21.0525 38.6307 20.4337C38.2627 19.8149 37.6053 19.4535 36.292 18.7307L29.592 15.0452C28.3253 14.3484 27.692 14 27 14C26.308 14 25.6747 14.3484 24.408 15.0452L17.708 18.732C16.3947 19.4535 15.7373 19.8149 15.3693 20.435C15.0013 21.0525 15.0013 21.7909 15 23.2664V29.4479C15 34.4217 15 36.9099 16.5627 38.4543C18.124 40 20.6387 40 25.6667 40H28.3333C33.3613 40 35.876 40 37.4373 38.4543C39 36.9099 39 34.423 39 29.4479Z" stroke="var(--stroke-0, #4DB1D4)" stroke-width="3" stroke-linecap="round"/>
</g>
</svg>
