<svg preserveAspectRatio="none" width="100%" height="100%" overflow="visible" style="display: block;" viewBox="0 0 23 23" fill="none" xmlns="http://www.w3.org/2000/svg">
<g id="Frame 2609341">
<rect width="23" height="23" rx="4" fill="var(--fill-0, #FFD0E9)"/>
<path id="Vector" d="M7.88889 9.4V8H18V9.4H7.88889ZM7.88889 12.2V10.8H18V12.2H7.88889ZM7.88889 15V13.6H18V15H7.88889ZM5.72222 9.4C5.51759 9.4 5.34619 9.3328 5.208 9.1984C5.06982 9.064 5.00048 8.89787 5 8.7C4.99952 8.50213 5.06885 8.336 5.208 8.2016C5.34715 8.0672 5.51856 8 5.72222 8C5.92589 8 6.09754 8.0672 6.23717 8.2016C6.3768 8.336 6.44589 8.50213 6.44445 8.7C6.443 8.89787 6.37367 9.06423 6.23645 9.1991C6.09922 9.33397 5.92782 9.40093 5.72222 9.4ZM5.72222 12.2C5.51759 12.2 5.34619 12.1328 5.208 11.9984C5.06982 11.864 5.00048 11.6979 5 11.5C4.99952 11.3021 5.06885 11.136 5.208 11.0016C5.34715 10.8672 5.51856 10.8 5.72222 10.8C5.92589 10.8 6.09754 10.8672 6.23717 11.0016C6.3768 11.136 6.44589 11.3021 6.44445 11.5C6.443 11.6979 6.37367 11.8642 6.23645 11.9991C6.09922 12.134 5.92782 12.2009 5.72222 12.2ZM5.72222 15C5.51759 15 5.34619 14.9328 5.208 14.7984C5.06982 14.664 5.00048 14.4979 5 14.3C4.99952 14.1021 5.06885 13.936 5.208 13.8016C5.34715 13.6672 5.51856 13.6 5.72222 13.6C5.92589 13.6 6.09754 13.6672 6.23717 13.8016C6.3768 13.936 6.44589 14.1021 6.44445 14.3C6.443 14.4979 6.37367 14.6642 6.23645 14.7991C6.09922 14.934 5.92782 15.0009 5.72222 15Z" fill="var(--fill-0, #DA318C)"/>
</g>
</svg>
