<svg preserveAspectRatio="none" width="100%" height="100%" overflow="visible" style="display: block;" viewBox="0 0 36 36" fill="none" xmlns="http://www.w3.org/2000/svg">
<path id="Vector" d="M32 0H4C1.8 0 0 1.8 0 4V32C0 34.2 1.8 36 4 36H32C34.2 36 36 34.2 36 32V4C36 1.8 34.2 0 32 0ZM13 17C13 18.6 11.6 20 10 20H8V24H5V12H10C11.6 12 13 13.4 13 15V17ZM23 21C23 22.6 21.6 24 20 24H15V12H20C21.6 12 23 13.4 23 15V21ZM31 15H28V17H31V20H28V24H25V12H31V15ZM18 15H20V21H18V15ZM8 15H10V17H8V15Z" fill="var(--fill-0, #CE5040)"/>
</svg>
