<svg preserveAspectRatio="none" width="100%" height="100%" overflow="visible" style="display: block;" viewBox="0 0 14 16" fill="none" xmlns="http://www.w3.org/2000/svg">
<g id="Group">
<g id="Vector">
</g>
<path id="Vector_2" d="M6.75075 2.49924e-06C6.2194 -0.000789121 5.7049 0.186499 5.2984 0.528694C4.8919 0.87089 4.61962 1.34591 4.52979 1.86962C4.43996 2.39333 4.53837 2.93193 4.8076 3.39004C5.07683 3.84814 5.49951 4.19617 6.00075 4.3725V6H3.75075C3.15402 6 2.58172 6.23705 2.15976 6.65901C1.73781 7.08097 1.50075 7.65327 1.50075 8.25V9.1275C1.00014 9.30443 0.578184 9.65265 0.309485 10.1106C0.0407853 10.5686 -0.0573601 11.1068 0.0323963 11.6301C0.122153 12.1534 0.394031 12.6282 0.799976 12.9704C1.20592 13.3127 1.71979 13.5004 2.25075 13.5004C2.78172 13.5004 3.29559 13.3127 3.70153 12.9704C4.10748 12.6282 4.37936 12.1534 4.46911 11.6301C4.55887 11.1068 4.46072 10.5686 4.19202 10.1106C3.92333 9.65265 3.50137 9.30443 3.00075 9.1275V8.25C3.00075 8.05109 3.07977 7.86032 3.22042 7.71967C3.36108 7.57902 3.55184 7.5 3.75075 7.5H9.75075C9.94967 7.5 10.1404 7.57902 10.2811 7.71967C10.4217 7.86032 10.5008 8.05109 10.5008 8.25V9.1275C10.0001 9.30443 9.57818 9.65265 9.30948 10.1106C9.04079 10.5686 8.94264 11.1068 9.0324 11.6301C9.12215 12.1534 9.39403 12.6282 9.79998 12.9704C10.2059 13.3127 10.7198 13.5004 11.2508 13.5004C11.7817 13.5004 12.2956 13.3127 12.7015 12.9704C13.1075 12.6282 13.3794 12.1534 13.4691 11.6301C13.5589 11.1068 13.4607 10.5686 13.192 10.1106C12.9233 9.65265 12.5014 9.30443 12.0008 9.1275V8.25C12.0008 7.65327 11.7637 7.08097 11.3417 6.65901C10.9198 6.23705 10.3475 6 9.75075 6H7.50075V4.3725C8.00112 4.19539 8.42278 3.84714 8.69128 3.38928C8.95977 2.93141 9.05781 2.39339 8.96807 1.87025C8.87834 1.3471 8.60661 0.872506 8.20088 0.530286C7.79516 0.188067 7.28154 0.000246251 6.75075 2.49924e-06Z" fill="var(--fill-0, #00B3D8)"/>
</g>
</svg>
