<svg preserveAspectRatio="none" width="100%" height="100%" overflow="visible" style="display: block;" viewBox="0 0 20 20" fill="none" xmlns="http://www.w3.org/2000/svg">
<g id="lets-icons:setting-fill">
<path id="Vector" fill-rule="evenodd" clip-rule="evenodd" d="M11.6533 2.11833C11.7258 2.25917 11.7442 2.44 11.78 2.80167C11.8483 3.485 11.8825 3.82667 12.0258 4.015C12.1151 4.13193 12.2338 4.22314 12.3698 4.27935C12.5058 4.33555 12.6542 4.35475 12.8 4.335C13.0333 4.30417 13.3 4.08667 13.8317 3.65167C14.1125 3.42083 14.2533 3.30583 14.4042 3.2575C14.5963 3.19611 14.8041 3.20648 14.9892 3.28667C15.135 3.35 15.2642 3.47833 15.52 3.735L16.265 4.48C16.5217 4.73667 16.65 4.865 16.7133 5.01083C16.7935 5.19588 16.8039 5.40373 16.7425 5.59583C16.6942 5.74667 16.5792 5.8875 16.3492 6.16833C15.9133 6.70083 15.6958 6.96667 15.6642 7.20083C15.6447 7.34658 15.6641 7.49489 15.7204 7.63072C15.7768 7.76654 15.868 7.88503 15.985 7.97417C16.1725 8.1175 16.515 8.15167 17.1992 8.22C17.56 8.25583 17.7408 8.27417 17.8825 8.34667C18.0612 8.43933 18.2003 8.59355 18.2742 8.78083C18.3333 8.92833 18.3333 9.11 18.3333 9.47333V10.5267C18.3333 10.89 18.3333 11.0717 18.275 11.2183C18.2009 11.4062 18.0612 11.5608 17.8817 11.6533C17.7408 11.7258 17.56 11.7442 17.1983 11.78C16.515 11.8483 16.1733 11.8825 15.985 12.0258C15.8681 12.1151 15.7769 12.2338 15.7207 12.3698C15.6644 12.5058 15.6452 12.6542 15.665 12.8C15.6967 13.0333 15.9142 13.3 16.3492 13.8317C16.5792 14.1125 16.6942 14.2525 16.7425 14.4042C16.8039 14.5963 16.7935 14.8041 16.7133 14.9892C16.65 15.135 16.5217 15.2633 16.265 15.52L15.52 16.2642C15.2633 16.5217 15.135 16.65 14.9892 16.7125C14.8041 16.7927 14.5963 16.8031 14.4042 16.7417C14.2533 16.6933 14.1125 16.5783 13.8317 16.3483C13.2992 15.9133 13.0333 15.6958 12.8 15.665C12.6542 15.6452 12.5058 15.6644 12.3698 15.7207C12.2338 15.7769 12.1151 15.8681 12.0258 15.985C11.8825 16.1725 11.8483 16.5142 11.78 17.1983C11.7442 17.56 11.7258 17.7408 11.6533 17.8817C11.561 18.061 11.4067 18.2008 11.2192 18.275C11.0717 18.3333 10.89 18.3333 10.5267 18.3333H9.47333C9.11 18.3333 8.92833 18.3333 8.78167 18.275C8.5938 18.2009 8.43922 18.0612 8.34667 17.8817C8.27417 17.7408 8.25583 17.56 8.22 17.1983C8.15167 16.515 8.1175 16.1733 7.97417 15.985C7.88494 15.8682 7.7664 15.7771 7.63059 15.7209C7.49477 15.6647 7.3465 15.6454 7.20083 15.665C6.96667 15.6958 6.70083 15.9133 6.16833 16.3483C5.8875 16.5792 5.74667 16.6942 5.59583 16.7425C5.40373 16.8039 5.19588 16.7935 5.01083 16.7133C4.865 16.65 4.73583 16.5217 4.48 16.265L3.735 15.52C3.47833 15.2633 3.35 15.135 3.28667 14.9892C3.20648 14.8041 3.19611 14.5963 3.2575 14.4042C3.30583 14.2533 3.42083 14.1125 3.65083 13.8317C4.08667 13.2992 4.30417 13.0333 4.335 12.7992C4.3546 12.6535 4.33532 12.5052 4.27912 12.3694C4.22292 12.2336 4.1318 12.1151 4.015 12.0258C3.8275 11.8825 3.485 11.8483 2.80083 11.78C2.44 11.7442 2.25917 11.7258 2.1175 11.6533C1.93879 11.5607 1.79966 11.4064 1.72583 11.2192C1.66667 11.0717 1.66667 10.89 1.66667 10.5267V9.47333C1.66667 9.11 1.66667 8.92833 1.725 8.78167C1.79907 8.5938 1.93885 8.43922 2.11833 8.34667C2.25917 8.27417 2.44 8.25583 2.80167 8.22C3.485 8.15167 3.8275 8.1175 4.015 7.97417C4.13195 7.88503 4.22324 7.76654 4.27959 7.63072C4.33593 7.49489 4.35534 7.34658 4.33583 7.20083C4.30417 6.96667 4.08583 6.70083 3.65083 6.1675C3.42083 5.88667 3.30583 5.74667 3.2575 5.595C3.19611 5.40289 3.20648 5.19505 3.28667 5.01C3.35 4.865 3.47833 4.73583 3.735 4.47917L4.48 3.735C4.73667 3.47833 4.865 3.34917 5.01083 3.28667C5.19588 3.20648 5.40373 3.19611 5.59583 3.2575C5.74667 3.30583 5.8875 3.42083 6.16833 3.65083C6.70083 4.08583 6.96667 4.30333 7.2 4.335C7.34601 4.35481 7.49466 4.33556 7.63081 4.2792C7.76695 4.22284 7.88572 4.13139 7.975 4.01417C8.11667 3.82667 8.15167 3.485 8.22 2.80083C8.25583 2.44 8.27417 2.25917 8.34667 2.1175C8.43917 1.93848 8.59341 1.79904 8.78083 1.725C8.92833 1.66667 9.11 1.66667 9.47333 1.66667H10.5267C10.89 1.66667 11.0717 1.66667 11.2183 1.725C11.4062 1.79907 11.5608 1.93885 11.6533 2.11833ZM10 13.3333C10.8841 13.3333 11.7319 12.9821 12.357 12.357C12.9821 11.7319 13.3333 10.8841 13.3333 10C13.3333 9.11594 12.9821 8.2681 12.357 7.64298C11.7319 7.01786 10.8841 6.66667 10 6.66667C9.11594 6.66667 8.2681 7.01786 7.64298 7.64298C7.01786 8.2681 6.66667 9.11594 6.66667 10C6.66667 10.8841 7.01786 11.7319 7.64298 12.357C8.2681 12.9821 9.11594 13.3333 10 13.3333Z" fill="var(--fill-0, #4DB1D4)"/>
</g>
</svg>
