<svg preserveAspectRatio="none" width="100%" height="100%" overflow="visible" style="display: block;" viewBox="0 0 18 18" fill="none" xmlns="http://www.w3.org/2000/svg">
<g id="DocumentManagementIcon">
<path id="Vector" d="M16.5 14.25C16.5 14.6478 16.342 15.0293 16.0606 15.3106C15.7793 15.592 15.3978 15.75 15 15.75H3C2.60218 15.75 2.22064 15.592 1.93934 15.3106C1.65803 15.0293 1.5 14.6478 1.5 14.25V3.75C1.5 3.35218 1.65803 2.97064 1.93934 2.68934C2.22064 2.40803 2.60218 2.25 3 2.25H6.75L8.25 4.5H15C15.3978 4.5 15.7793 4.65803 16.0606 4.93934C16.342 5.22065 16.5 5.60218 16.5 6V14.25Z" stroke="var(--stroke-0, #00B3D8)" stroke-width="1.5" stroke-linecap="round" stroke-linejoin="round"/>
<path id="Vector_2" d="M6 9H12M6 12H9.75" stroke="var(--stroke-0, #00B3D8)" stroke-width="1.5" stroke-linecap="round" stroke-linejoin="round"/>
</g>
</svg>
