<svg preserveAspectRatio="none" width="100%" height="100%" overflow="visible" style="display: block;" viewBox="0 0 20 20" fill="none" xmlns="http://www.w3.org/2000/svg">
<g id="tdesign:data-base-filled">
<path id="Vector" d="M16.42 7.15667C14.7 7.73 12.4308 8.05583 10 8.05583C7.56917 8.05583 5.3 7.73 3.58 7.15583C2.89167 6.9275 2.22833 6.6375 1.66667 6.27167V9.85917C1.66667 11.3933 5.3975 12.6367 10 12.6367C14.6025 12.6367 18.3333 11.3933 18.3333 9.85917V6.27083C17.7717 6.6375 17.1092 6.92667 16.4192 7.15667" fill="var(--fill-0, #243644)"/>
<path id="Vector_2" d="M18.3333 12.5183C17.7717 12.8842 17.1092 13.1742 16.4192 13.4033C14.7 13.9767 12.4308 14.3033 10 14.3033C7.56917 14.3033 5.3 13.9767 3.58 13.4033C2.89167 13.175 2.22833 12.885 1.66667 12.5183V16.3892C1.66667 17.9225 5.3975 19.1667 10 19.1667C14.6025 19.1667 18.3333 17.9233 18.3333 16.3892V12.5183ZM10 6.38917C5.3975 6.38917 1.66667 5.145 1.66667 3.61083V3.60833C1.67083 2.075 5.4 0.833333 10 0.833333C13.4517 0.833333 16.4133 1.53333 17.6783 2.53C18.1 2.8625 18.3333 3.2275 18.3333 3.61083C18.3333 5.145 14.6025 6.38917 10 6.38917Z" fill="var(--fill-0, #243644)"/>
</g>
</svg>
