<svg preserveAspectRatio="none" width="100%" height="100%" overflow="visible" style="display: block;" viewBox="0 0 18 18" fill="none" xmlns="http://www.w3.org/2000/svg">
<g id="DistributedDocumentIcon">
<path id="Vector" d="M10.5 1.5H4.5C4.10218 1.5 3.72065 1.65803 3.43934 1.93934C3.15803 2.22064 3 2.60218 3 3V15C3 15.3978 3.15803 15.7793 3.43934 16.0606C3.72065 16.342 4.10218 16.5 4.5 16.5H13.5C13.8978 16.5 14.2793 16.342 14.5606 16.0606C14.842 15.7793 15 15.3978 15 15V6L10.5 1.5Z" stroke="var(--stroke-0, #364153)" stroke-width="1.5" stroke-linecap="round" stroke-linejoin="round"/>
<path id="Vector_2" d="M10.5 1.5V6H15" stroke="var(--stroke-0, #364153)" stroke-width="1.5" stroke-linecap="round" stroke-linejoin="round"/>
<path id="Vector_3" d="M9 10.5L6.75 12.75M9 10.5L11.25 12.75M9 10.5V8.25" stroke="var(--stroke-0, #364153)" stroke-width="1.5" stroke-linecap="round" stroke-linejoin="round"/>
<path id="Vector_4" d="M6.75 13.875C7.37132 13.875 7.875 13.3713 7.875 12.75C7.875 12.1287 7.37132 11.625 6.75 11.625C6.12868 11.625 5.625 12.1287 5.625 12.75C5.625 13.3713 6.12868 13.875 6.75 13.875Z" fill="var(--fill-0, #364153)"/>
<path id="Vector_5" d="M11.25 13.875C11.8713 13.875 12.375 13.3713 12.375 12.75C12.375 12.1287 11.8713 11.625 11.25 11.625C10.6287 11.625 10.125 12.1287 10.125 12.75C10.125 13.3713 10.6287 13.875 11.25 13.875Z" fill="var(--fill-0, #364153)"/>
<path id="Vector_6" d="M9 9.375C9.62132 9.375 10.125 8.87132 10.125 8.25C10.125 7.62868 9.62132 7.125 9 7.125C8.37868 7.125 7.875 7.62868 7.875 8.25C7.875 8.87132 8.37868 9.375 9 9.375Z" fill="var(--fill-0, #364153)"/>
</g>
</svg>
