<svg preserveAspectRatio="none" width="100%" height="100%" overflow="visible" style="display: block;" viewBox="0 0 50 50" fill="none" xmlns="http://www.w3.org/2000/svg">
<g id="Icon">
<circle id="Ellipse 3" cx="25" cy="25" r="25" fill="var(--fill-0, #FFF4D4)"/>
<g id="material-symbols:store">
<path id="Vector" d="M26.4495 14.9997V17.0197C30.8395 17.5597 33.9495 21.5497 33.4095 25.9397C32.9495 29.5797 30.0895 32.4697 26.4495 32.8997V34.8997C31.9495 34.3497 35.9495 29.4697 35.3995 23.9697C34.9495 19.2197 31.1795 15.4697 26.4495 14.9997ZM24.4495 15.0297C22.4995 15.2197 20.6395 15.9697 19.1195 17.2297L20.5495 18.7097C21.6695 17.8097 23.0195 17.2297 24.4495 17.0297V15.0297ZM17.7095 18.6397C16.46 20.1576 15.6906 22.013 15.4995 23.9697H17.4995C17.6895 22.5497 18.2495 21.1997 19.1395 20.0697L17.7095 18.6397ZM28.9495 21.4697L24.0695 26.3497L21.9495 24.2297L20.8895 25.2897L24.0695 28.4697L30.0095 22.5297L28.9495 21.4697ZM15.5095 25.9697C15.7095 27.9297 16.4795 29.7797 17.7195 31.2997L19.1395 29.8697C18.2564 28.7394 17.6934 27.3924 17.5095 25.9697H15.5095ZM20.5495 31.3397L19.1195 32.7097C20.6345 33.9721 22.4889 34.7584 24.4495 34.9697V32.9697C23.0269 32.7859 21.6799 32.2229 20.5495 31.3397Z" fill="var(--fill-0, #C08F2C)"/>
</g>
</g>
</svg>
