<svg preserveAspectRatio="none" width="100%" height="100%" overflow="visible" style="display: block;" viewBox="0 0 16 16" fill="none" xmlns="http://www.w3.org/2000/svg">
<g id="Icon">
<path id="Vector" d="M3.9974 7.99479H9.99349C10.7003 7.99479 11.3781 8.27556 11.8779 8.77533C12.3777 9.2751 12.6584 9.95294 12.6584 10.6597C12.6584 11.3665 12.3777 12.0443 11.8779 12.5441C11.3781 13.0439 10.7003 13.3247 9.99349 13.3247H4.66363C4.48693 13.3247 4.31747 13.2545 4.19253 13.1295C4.06759 13.0046 3.9974 12.8351 3.9974 12.6584V3.33116C3.9974 3.15447 4.06759 2.98501 4.19253 2.86007C4.31747 2.73512 4.48693 2.66493 4.66363 2.66493H9.32726C10.034 2.66493 10.7119 2.9457 11.2116 3.44547C11.7114 3.94524 11.9922 4.62308 11.9922 5.32986C11.9922 6.03664 11.7114 6.71448 11.2116 7.21425C10.7119 7.71402 10.034 7.99479 9.32726 7.99479" stroke="var(--stroke-0, #0A0A0A)" stroke-width="1.33247" stroke-linecap="round" stroke-linejoin="round"/>
</g>
</svg>
