<svg preserveAspectRatio="none" width="100%" height="100%" overflow="visible" style="display: block;" viewBox="0 0 18 19" fill="none" xmlns="http://www.w3.org/2000/svg">
<g id="streamline-ultimate:task-list-approve-bold">
<path id="Vector" d="M15.375 1.58333H11.625C11.5936 1.58152 11.5629 1.57198 11.5356 1.55549C11.5083 1.539 11.4849 1.516 11.4675 1.48833C11.2143 1.03531 10.8535 0.65984 10.4207 0.398997C9.98802 0.138154 9.49832 0.000958678 9 0.000958678C8.50168 0.000958678 8.01198 0.138154 7.57925 0.398997C7.14652 0.65984 6.78573 1.03531 6.5325 1.48833C6.51505 1.516 6.49173 1.539 6.46439 1.55549C6.43705 1.57198 6.40644 1.58152 6.375 1.58333H2.625C2.32663 1.58333 2.04048 1.70844 1.8295 1.93114C1.61853 2.15384 1.5 2.45589 1.5 2.77083V17.8125C1.5 18.1274 1.61853 18.4295 1.8295 18.6522C2.04048 18.8749 2.32663 19 2.625 19H15.375C15.6734 19 15.9595 18.8749 16.1705 18.6522C16.3815 18.4295 16.5 18.1274 16.5 17.8125V2.77083C16.5 2.45589 16.3815 2.15384 16.1705 1.93114C15.9595 1.70844 15.6734 1.58333 15.375 1.58333ZM14.25 12.8725C14.2509 13.3456 14.0913 13.8034 13.8 14.1629L12.36 15.9362C12.183 16.152 11.9642 16.3251 11.7183 16.4439C11.4725 16.5627 11.2054 16.6245 10.935 16.625H4.125C4.02554 16.625 3.93016 16.5833 3.85984 16.5091C3.78951 16.4348 3.75 16.3341 3.75 16.2292V4.35417C3.75 4.24918 3.78951 4.1485 3.85984 4.07427C3.93016 4.00004 4.02554 3.95833 4.125 3.95833H13.875C13.9745 3.95833 14.0698 4.00004 14.1402 4.07427C14.2105 4.1485 14.25 4.24918 14.25 4.35417V12.8725Z" fill="var(--fill-0, white)"/>
<path id="Vector_2" d="M11.0625 6.85583L8.145 10.9567C8.12811 10.9782 8.10692 10.9956 8.08293 11.0075C8.05895 11.0194 8.03276 11.0256 8.00625 11.0256C7.97974 11.0256 7.95355 11.0194 7.92957 11.0075C7.90558 10.9956 7.88439 10.9782 7.8675 10.9567L6.5025 9.53958C6.32646 9.35377 6.0877 9.24938 5.83875 9.24938C5.5898 9.24938 5.35104 9.35377 5.175 9.53958C4.99896 9.7254 4.90007 9.97742 4.90007 10.2402C4.90007 10.503 4.99896 10.755 5.175 10.9408L6.8025 12.6667C6.97888 12.8532 7.19121 12.9974 7.42507 13.0896C7.65893 13.1818 7.90885 13.2198 8.15786 13.201C8.40686 13.1823 8.64913 13.1071 8.8682 12.9808C9.08727 12.8544 9.27802 12.6798 9.4275 12.4687L12.5625 8.05917C12.7117 7.8492 12.7757 7.58528 12.7406 7.32547C12.7054 7.06565 12.5739 6.83122 12.375 6.67375C12.1761 6.51628 11.9261 6.44866 11.6799 6.48578C11.4338 6.5229 11.2117 6.6617 11.0625 6.87167V6.85583Z" fill="var(--fill-0, white)"/>
</g>
</svg>
