<svg preserveAspectRatio="none" width="100%" height="100%" overflow="visible" style="display: block;" viewBox="0 0 20 22" fill="none" xmlns="http://www.w3.org/2000/svg">
<g id="Group">
<path id="Vector" fill-rule="evenodd" clip-rule="evenodd" d="M10.593 21.258L10.582 21.26L10.511 21.295L10.491 21.299L10.477 21.295L10.406 21.26C10.3953 21.2567 10.3873 21.2583 10.382 21.265L10.378 21.275L10.361 21.703L10.366 21.723L10.376 21.736L10.48 21.81L10.495 21.814L10.507 21.81L10.611 21.736L10.623 21.72L10.627 21.703L10.61 21.276C10.6073 21.2653 10.6017 21.2593 10.593 21.258ZM10.858 21.145L10.845 21.147L10.66 21.24L10.65 21.25L10.647 21.261L10.665 21.691L10.67 21.703L10.678 21.71L10.879 21.803C10.8917 21.8063 10.9013 21.8037 10.908 21.795L10.912 21.781L10.878 21.167C10.8747 21.155 10.868 21.1477 10.858 21.145ZM10.143 21.147C10.1386 21.1443 10.1333 21.1435 10.1283 21.1446C10.1233 21.1457 10.1189 21.1487 10.116 21.153L10.11 21.167L10.076 21.781C10.0767 21.793 10.0823 21.801 10.093 21.805L10.108 21.803L10.309 21.71L10.319 21.702L10.323 21.691L10.34 21.261L10.337 21.249L10.327 21.239L10.143 21.147Z" fill="var(--fill-0, #4DB1D4)"/>
<path id="Vector_2" fill-rule="evenodd" clip-rule="evenodd" d="M10 2C7.87827 2 5.84344 2.84285 4.34315 4.34315C2.84285 5.84344 2 7.87827 2 10C2 12.1217 2.84285 14.1566 4.34315 15.6569C5.84344 17.1571 7.87827 18 10 18C12.1217 18 14.1566 17.1571 15.6569 15.6569C17.1571 14.1566 18 12.1217 18 10C18 7.87827 17.1571 5.84344 15.6569 4.34315C14.1566 2.84285 12.1217 2 10 2ZM0 10C0 4.477 4.477 0 10 0C15.523 0 20 4.477 20 10C20 15.523 15.523 20 10 20C4.477 20 0 15.523 0 10Z" fill="var(--fill-0, #8A8F9D)"/>
</g>
</svg>
