<svg preserveAspectRatio="none" width="100%" height="100%" overflow="visible" style="display: block;" viewBox="0 0 5 5" fill="none" xmlns="http://www.w3.org/2000/svg">
<g id="Group">
<path id="Vector" d="M4.42534 3.70743L2.99962 2.28374L4.42534 0.860045C4.62174 0.663647 4.62174 0.344865 4.42585 0.147934C4.22895 -0.0494804 3.91016 -0.0489727 3.71326 0.147426L2.28654 1.57213L0.859831 0.147426C0.662924 -0.0489727 0.344142 -0.0494804 0.147236 0.147934C-0.0491629 0.34484 -0.0491632 0.663622 0.147743 0.860045L1.57347 2.28374L0.147743 3.70743C-0.0491632 3.90383 -0.0491629 4.22261 0.147236 4.41954C0.245448 4.51823 0.374865 4.56709 0.5038 4.56709C0.632735 4.56709 0.761644 4.51773 0.859856 4.42002L2.28657 2.99532L3.71328 4.42002C3.81149 4.51823 3.9404 4.56709 4.06934 4.56709C4.19827 4.56709 4.32769 4.51773 4.4259 4.41954C4.62225 4.22261 4.62225 3.90383 4.42534 3.70743Z" fill="var(--fill-0, #595959)"/>
</g>
</svg>
