<svg preserveAspectRatio="none" width="100%" height="100%" overflow="visible" style="display: block;" viewBox="0 0 15 13" fill="none" xmlns="http://www.w3.org/2000/svg">
<path id="Vector" fill-rule="evenodd" clip-rule="evenodd" d="M0.321046 1.90182C0.387383 1.37824 0.659543 0.89535 1.08589 0.544784C1.51223 0.194218 2.06309 0.000362886 2.63396 2.00861e-07H11.5295C11.6803 -0.00011629 11.826 0.0504403 11.9395 0.142236L14.225 1.99588C14.7393 2.41265 15.0233 3.02059 14.9985 3.65147L14.7136 10.9728C14.6924 11.517 14.4433 12.0324 14.0189 12.4105C13.5945 12.7886 13.0277 13 12.438 13H2.49318C1.96082 13.0004 1.44661 12.8214 1.047 12.4966C0.647388 12.1718 0.389852 11.7235 0.322702 11.2358C-0.0890402 8.27015 -0.106839 5.26913 0.269703 2.29947L0.321046 1.90182ZM2.63479 1.14706C2.08244 1.14706 1.61787 1.52941 1.5541 2.03488L1.50442 2.43253C1.13984 5.30967 1.15652 8.21712 1.5541 11.0905C1.61538 11.5264 2.01785 11.8529 2.49318 11.8529H3.02069V8.60294C3.02069 7.86423 3.66993 7.2647 4.46988 7.2647H10.2667C11.0666 7.2647 11.7159 7.86423 11.7159 8.60294V11.8529H12.4388C12.707 11.8531 12.9648 11.7571 13.1579 11.5852C13.351 11.4134 13.4643 11.179 13.4739 10.9315L13.758 3.61094C13.7636 3.4692 13.7351 3.32807 13.6743 3.19779C13.6136 3.06751 13.5222 2.95134 13.4069 2.85771L11.3018 1.15088V2.94412C11.3018 3.29904 11.1491 3.63942 10.8773 3.89039C10.6056 4.14136 10.237 4.28235 9.85261 4.28235H4.88394C4.49959 4.28235 4.13098 4.14136 3.8592 3.89039C3.58743 3.63942 3.43475 3.29904 3.43475 2.94412V1.14706H2.63479ZM4.67691 1.14706V2.94412C4.67691 3.04965 4.76966 3.13529 4.88394 3.13529H9.85261C9.90752 3.13529 9.96018 3.11515 9.999 3.0793C10.0378 3.04345 10.0596 2.99482 10.0596 2.94412V1.14706H4.67691ZM10.4737 11.8529H4.26286V8.60294C4.26286 8.55224 4.28467 8.50361 4.32349 8.46776C4.36232 8.43191 4.41498 8.41176 4.46988 8.41176H10.2667C10.3216 8.41176 10.3742 8.43191 10.4131 8.46776C10.4519 8.50361 10.4737 8.55224 10.4737 8.60294V11.8529Z" fill="var(--fill-0, white)"/>
</svg>
