<svg preserveAspectRatio="none" width="100%" height="100%" overflow="visible" style="display: block;" viewBox="0 0 16 19" fill="none" xmlns="http://www.w3.org/2000/svg">
<g id="Group">
<path id="Vector" d="M10.3833 3.58333H13.2167C13.5172 3.58333 13.8055 3.70274 14.0181 3.91528C14.2306 4.12782 14.35 4.41609 14.35 4.71667V16.6167C14.35 16.9172 14.2306 17.2055 14.0181 17.4181C13.8055 17.6306 13.5172 17.75 13.2167 17.75H1.88333C1.58275 17.75 1.29449 17.6306 1.08195 17.4181C0.869404 17.2055 0.75 16.9172 0.75 16.6167V4.71667C0.75 4.41609 0.869404 4.12782 1.08195 3.91528C1.29449 3.70274 1.58275 3.58333 1.88333 3.58333H4.71667C4.71667 2.83189 5.01518 2.11122 5.54653 1.57986C6.07788 1.04851 6.79855 0.75 7.55 0.75C8.30145 0.75 9.02212 1.04851 9.55347 1.57986C10.0848 2.11122 10.3833 2.83189 10.3833 3.58333Z" stroke="var(--stroke-0, #6A7282)" stroke-width="1.5" stroke-linecap="round" stroke-linejoin="round"/>
<path id="Vector_2" d="M7.55 3.58333C7.47486 3.58333 7.40279 3.55348 7.34965 3.50035C7.29652 3.44721 7.26667 3.37514 7.26667 3.3C7.26667 3.22486 7.29652 3.15279 7.34965 3.09965C7.40279 3.04652 7.47486 3.01667 7.55 3.01667M7.55 3.58333C7.62514 3.58333 7.69721 3.55348 7.75035 3.50035C7.80348 3.44721 7.83333 3.37514 7.83333 3.3C7.83333 3.22486 7.80348 3.15279 7.75035 3.09965C7.69721 3.04652 7.62514 3.01667 7.55 3.01667" stroke="var(--stroke-0, #6A7282)" stroke-width="1.5"/>
<path id="Vector_3" d="M3.58333 8.11667H7.55M9.81667 8.11667H11.5167M11.5167 10.95H7.55M5.28333 10.95H3.58333M3.58333 13.7833H7.55M9.81667 13.7833H11.5167" stroke="var(--stroke-0, #6A7282)" stroke-width="1.5" stroke-linecap="round" stroke-linejoin="round"/>
</g>
</svg>
