<svg preserveAspectRatio="none" width="100%" height="100%" overflow="visible" style="display: block;" viewBox="0 0 17 17" fill="none" xmlns="http://www.w3.org/2000/svg">
<g id="Group">
<path id="Vector" d="M0 5.85059C0 4.32604 -4.81814e-08 3.56457 0.473693 3.09088C0.947386 2.61719 1.70885 2.61719 3.2334 2.61719H12.9336C14.4581 2.61719 15.2196 2.61719 15.6933 3.09088C16.167 3.56457 16.167 4.32604 16.167 5.85059C16.167 6.23132 16.167 6.42209 16.049 6.54092C15.9301 6.65894 15.7386 6.65894 15.3586 6.65894H0.80835C0.427617 6.65894 0.236846 6.65894 0.118019 6.54092C-7.22721e-08 6.42209 0 6.23051 0 5.85059ZM0 13.1257C0 14.6503 -4.81814e-08 15.4117 0.473693 15.8854C0.947386 16.3591 1.70885 16.3591 3.2334 16.3591H12.9336C14.4581 16.3591 15.2196 16.3591 15.6933 15.8854C16.167 15.4117 16.167 14.6503 16.167 13.1257V9.08398C16.167 8.70325 16.167 8.51248 16.049 8.39365C15.9301 8.27563 15.7386 8.27563 15.3586 8.27563H0.80835C0.427617 8.27563 0.236846 8.27563 0.118019 8.39365C-7.22721e-08 8.51248 0 8.70406 0 9.08398V13.1257Z" fill="var(--fill-0, #DA318C)"/>
<path id="Vector_2" d="M4.04102 1V3.42505M12.1245 1V3.42505" stroke="var(--stroke-0, #DA318C)" stroke-width="2" stroke-linecap="round"/>
</g>
</svg>
