<svg preserveAspectRatio="none" width="100%" height="100%" overflow="visible" style="display: block;" viewBox="0 0 13 13" fill="none" xmlns="http://www.w3.org/2000/svg">
<g id="Group">
<path id="Vector" d="M11.099 1.901C8.56434 -0.633667 4.43881 -0.633667 1.90414 1.901C0.676337 3.12929 0 4.76199 0 6.49843C0 8.23486 0.676337 9.86757 1.90414 11.0954C3.17173 12.363 4.83666 12.9965 6.50156 12.9965C8.16647 12.9965 9.83142 12.363 11.099 11.0954C13.6337 8.5607 13.6337 4.43615 11.099 1.901ZM10.3869 10.3833C8.24454 12.5256 4.75858 12.5256 2.61622 10.3833C1.5788 9.34583 1.00721 7.96594 1.00721 6.49843C1.00721 5.03091 1.5788 3.65102 2.61622 2.61309C4.75858 0.470734 8.24454 0.471242 10.3869 2.61309C12.5287 4.75544 12.5287 8.24141 10.3869 10.3833Z" fill="var(--fill-0, #595959)"/>
</g>
</svg>
