<svg preserveAspectRatio="none" width="100%" height="100%" overflow="visible" style="display: block;" viewBox="0 0 15 15" fill="none" xmlns="http://www.w3.org/2000/svg">
<g id="Group">
<path id="Vector" d="M10.1063 2.55587L11.694 4.14362M11.127 1.15712L6.83175 5.45237C6.60916 5.6735 6.45768 5.95608 6.39675 6.26387L6 8.24987L7.986 7.85237C8.2935 7.79087 8.5755 7.64012 8.7975 7.41812L13.0928 3.12287C13.2218 2.9938 13.3242 2.84057 13.3941 2.67192C13.4639 2.50328 13.4999 2.32253 13.4999 2.14C13.4999 1.95746 13.4639 1.77671 13.3941 1.60807C13.3242 1.43942 13.2218 1.28619 13.0928 1.15712C12.9637 1.02805 12.8104 0.925661 12.6418 0.855807C12.4732 0.785953 12.2924 0.75 12.1099 0.75C11.9273 0.75 11.7466 0.785953 11.5779 0.855807C11.4093 0.925661 11.2561 1.02805 11.127 1.15712Z" stroke="var(--stroke-0, white)" stroke-width="1.5" stroke-linecap="round" stroke-linejoin="round"/>
<path id="Vector_2" d="M12 9.74987V11.9999C12 12.3977 11.842 12.7792 11.5607 13.0605C11.2794 13.3418 10.8978 13.4999 10.5 13.4999H2.25C1.85218 13.4999 1.47064 13.3418 1.18934 13.0605C0.908035 12.7792 0.75 12.3977 0.75 11.9999V3.74987C0.75 3.35205 0.908035 2.97051 1.18934 2.68921C1.47064 2.40791 1.85218 2.24987 2.25 2.24987H4.5" stroke="var(--stroke-0, white)" stroke-width="1.5" stroke-linecap="round" stroke-linejoin="round"/>
</g>
</svg>
